<?xml version="1.0" encoding="iso-8859-1"?>
<!-- Generator: Adobe Illustrator 26.0.2, SVG Export Plug-In . SVG Version: 6.00 Build 0)  -->
<svg version="1.1" id="Layer_3" xmlns="http://www.w3.org/2000/svg" xmlns:xlink="http://www.w3.org/1999/xlink" x="0px" y="0px"
	 viewBox="0 0 296 76" style="enable-background:new 0 0 296 76;" xml:space="preserve">
<g id="Icon">
	<path id="Background" style="fill:#FFFFFF;" d="M64.645,74H11.356C6.197,74,2,69.803,2,64.645V11.356C2,6.197,6.197,2,11.356,2
		h53.29C69.803,2,74,6.197,74,11.356v53.29C74,69.803,69.803,74,64.645,74z"/>
	<path id="Border" style="fill:#E5422B;" d="M64.645,73.25H11.356c-4.745,0-8.606-3.86-8.606-8.605V11.356
		c0-4.745,3.86-8.606,8.606-8.606h53.29c4.744,0,8.605,3.86,8.605,8.606v53.29C73.25,69.39,69.39,73.25,64.645,73.25z M64.645,4.25
		H11.356c-3.947,0-7.106,3.158-7.106,7.106v53.29c0,3.947,3.158,7.105,7.106,7.105h53.29c3.868,0,7.105-3.158,7.105-7.105V11.356
		C71.75,7.408,68.592,4.25,64.645,4.25"/>
	<g id="Laravel_Mix" style="opacity:0.75;">
		<path style="fill:#6DA5E5;" d="M56.588,29.867c0.011-0.266,0.017-0.534,0.017-0.802c0-10.276-8.331-18.608-18.608-18.608
			s-18.608,8.331-18.608,18.608c0,0.269,0.006,0.538,0.017,0.804c6.241-2.726,13.345-1.76,18.593,2.17
			C43.247,28.111,50.348,27.143,56.588,29.867L56.588,29.867z"/>
		<path style="fill:#294BA5;" d="M30.571,46.132c2.343,1.019,4.871,1.543,7.427,1.541c2.642,0,5.156-0.55,7.432-1.543
			c-0.127-2.993-0.978-5.909-2.479-8.502c-1.256-2.179-2.94-4.079-4.951-5.588c-2.012,1.508-3.695,3.41-4.95,5.588
			C31.549,40.22,30.697,43.138,30.571,46.132L30.571,46.132z"/>
		<path style="fill:#2B9BDA;" d="M45.43,46.129c6.346-2.769,10.849-8.973,11.158-16.264c-6.239-2.723-13.341-1.755-18.587,2.173
			c2.012,1.508,3.695,3.41,4.95,5.588C44.452,40.219,45.303,43.137,45.43,46.129z"/>
		<path style="fill:#6750AE;" d="M30.571,46.132c-6.349-2.767-10.854-8.972-11.164-16.264C25.647,27.142,32.753,28.11,38,32.04
			c-2.011,1.508-3.695,3.41-4.95,5.588C31.549,40.22,30.697,43.138,30.571,46.132L30.571,46.132z"/>
		<path style="fill:#6074B8;" d="M45.43,46.129c0.253,5.999-2.411,11.939-7.43,15.69c-5.017-3.751-7.683-9.688-7.43-15.688
			c2.343,1.02,4.871,1.544,7.427,1.541C40.639,47.674,43.153,47.122,45.43,46.129z"/>
		<path style="fill:#66F1F3;" d="M38,61.821c0.588,0.439,1.209,0.85,1.861,1.227c8.9,5.138,20.281,2.089,25.418-6.811
			c5.139-8.9,2.09-20.281-6.811-25.418c-0.608-0.353-1.236-0.671-1.881-0.951c-0.309,7.29-4.812,13.495-11.158,16.264
			C45.684,52.129,43.017,58.069,38,61.821z"/>
		<path style="fill:#F27CC2;" d="M38,61.821c-0.588,0.439-1.209,0.85-1.861,1.227c-8.9,5.138-20.281,2.089-25.418-6.811
			c-5.139-8.9-2.09-20.281,6.811-25.418c0.607-0.352,1.233-0.668,1.876-0.948c0.31,7.292,4.816,13.497,11.163,16.264
			C30.317,52.132,32.984,58.07,38,61.821L38,61.821z"/>
	</g>
	<path id="C_Outline" style="fill:#FFFFFF;" d="M37.014,51.026c-4.046,0-7.466-1.395-9.632-3.929
		c-1.986-2.323-2.782-5.497-2.24-8.938c1.151-7.321,7.772-12.634,15.74-12.634c3.856,0,7.483,1.557,9.95,4.272l0.53,0.583
		l-5.632,4.626l-0.472-0.619c-1.176-1.545-3.108-2.467-5.166-2.467c-4.094,0-7.287,2.605-7.946,6.481
		c-0.269,1.785,0.09,3.321,1.042,4.426c1.015,1.18,2.638,1.803,4.693,1.803c2.206,0,4.348-0.919,6.368-2.729l0.567-0.509
		l4.169,4.794l-0.604,0.488C44.863,49.521,40.932,51.026,37.014,51.026z"/>
	<path id="C" style="fill:#E5422B;" d="M37.882,45.382c2.21,0,4.579-0.868,6.868-2.921l3.158,3.631
		c-3.316,2.684-7.105,4.184-10.895,4.184c-7.5,0-12.237-4.974-11.131-12c1.105-7.026,7.5-12,15-12c3.632,0,7.026,1.421,9.395,4.026
		l-4.421,3.631c-1.263-1.658-3.395-2.763-5.763-2.763c-4.5,0-7.974,2.921-8.684,7.105C30.777,42.461,33.303,45.382,37.882,45.382"/>
</g>
<g id="Text_Outline">
	<path style="fill:#FFFFFF;" d="M270.343,53.045c-0.311,0-0.603-0.144-0.792-0.39l-5.23-6.79l-5.128,6.783
		c-0.189,0.25-0.484,0.396-0.798,0.396h-2.696c-0.381,0-0.729-0.217-0.897-0.558c-0.168-0.342-0.128-0.749,0.104-1.052l6.721-8.75
		l-5.705-7.329c-0.234-0.301-0.277-0.71-0.109-1.053c0.168-0.343,0.517-0.561,0.898-0.561h2.884c0.319,0,0.619,0.152,0.807,0.41
		l3.984,5.446l3.949-5.443c0.188-0.259,0.489-0.413,0.81-0.413h2.81c0.381,0,0.729,0.216,0.897,0.558
		c0.168,0.342,0.128,0.75-0.104,1.051l-5.629,7.321l6.931,8.751c0.238,0.301,0.283,0.711,0.116,1.057
		c-0.167,0.345-0.517,0.564-0.9,0.564H270.343z M249.024,53.045c-0.553,0-1-0.447-1-1V34.742c0-0.552,0.447-1,1-1h2.247
		c0.553,0,1,0.448,1,1v17.303c0,0.553-0.447,1-1,1H249.024z M239.392,53.045c-0.553,0-1-0.447-1-1V33.33l-8.27,19.112
		c-0.158,0.365-0.52,0.603-0.918,0.603h-1.086c-0.396,0-0.756-0.234-0.916-0.598l-8.421-19.179v18.777c0,0.553-0.447,1-1,1h-2.472
		c-0.553,0-1-0.447-1-1V25.528c0-0.552,0.447-1,1-1h3.708c0.398,0,0.759,0.236,0.917,0.602l8.745,20.136l8.746-20.136
		c0.158-0.365,0.519-0.602,0.917-0.602h3.521c0.553,0,1,0.448,1,1v26.517c0,0.553-0.447,1-1,1H239.392z M250.147,30.573
		c-0.737,0-1.396-0.27-1.906-0.781c-0.509-0.507-0.779-1.167-0.779-1.904c0-0.736,0.27-1.395,0.78-1.905s1.169-0.78,1.905-0.78
		c0.735,0,1.394,0.27,1.905,0.779c0.512,0.515,0.78,1.173,0.78,1.906c0,0.735-0.27,1.394-0.778,1.904
		C251.543,30.303,250.884,30.573,250.147,30.573z"/>
	<path style="fill:#FFFFFF;" d="M117.764,53.719c-2.183,0-4.229-0.349-6.079-1.036c-1.866-0.692-3.505-1.702-4.873-3.003
		c-1.37-1.303-2.451-2.898-3.213-4.743c-0.758-1.838-1.143-3.907-1.143-6.149c0-2.243,0.385-4.312,1.143-6.15
		c0.761-1.843,1.842-3.439,3.212-4.744c1.366-1.299,3.005-2.309,4.873-3.003c1.85-0.688,3.896-1.036,6.079-1.036
		c0.803,0,1.647,0.074,2.508,0.22c0.87,0.146,1.74,0.384,2.585,0.707c0.856,0.327,1.69,0.767,2.478,1.309
		c0.803,0.555,1.53,1.24,2.163,2.037c0.34,0.428,0.273,1.051-0.15,1.396l-4.494,3.671c-0.186,0.152-0.41,0.226-0.632,0.226
		c-0.289,0-0.575-0.125-0.773-0.365c-0.48-0.584-1.053-1.02-1.752-1.332c-0.704-0.316-1.543-0.476-2.495-0.476
		c-0.949,0-1.837,0.184-2.64,0.548c-0.806,0.365-1.514,0.883-2.104,1.538c-0.598,0.663-1.074,1.468-1.415,2.393
		c-0.345,0.931-0.519,1.96-0.519,3.062c0,1.124,0.174,2.159,0.517,3.076c0.342,0.916,0.814,1.718,1.404,2.384
		c0.579,0.655,1.27,1.172,2.052,1.536c0.773,0.36,1.62,0.543,2.518,0.543c1.024,0,1.936-0.212,2.708-0.629
		c0.785-0.425,1.416-1.005,1.928-1.772c0.152-0.229,0.392-0.384,0.662-0.431c0.057-0.01,0.113-0.015,0.17-0.015
		c0.214,0,0.424,0.068,0.598,0.198l4.869,3.633c0.436,0.326,0.532,0.94,0.216,1.383c-1.225,1.716-2.801,3-4.685,3.819
		C121.64,53.313,119.716,53.719,117.764,53.719z M191.534,53.494c-1.027,0-1.991-0.111-2.864-0.33
		c-0.921-0.229-1.744-0.605-2.444-1.117c-0.73-0.532-1.309-1.231-1.716-2.078c-0.4-0.828-0.604-1.832-0.604-2.98v-7.651h-2.596
		c-0.553,0-1-0.448-1-1v-4.494c0-0.552,0.447-1,1-1h2.596v-4.394c0-0.552,0.447-1,1-1h5.618c0.553,0,1,0.448,1,1v4.394h3.943
		c0.553,0,1,0.448,1,1v4.494c0,0.552-0.447,1-1,1h-3.943v5.067c0,0.46,0.022,0.879,0.067,1.247c0.032,0.273,0.103,0.503,0.207,0.682
		c0.045,0.077,0.128,0.187,0.351,0.286c0.159,0.071,0.467,0.156,1.034,0.156c0.256,0,0.609-0.029,1.053-0.086
		c0.39-0.05,0.529-0.152,0.563-0.183c0.187-0.168,0.426-0.256,0.668-0.256c0.138,0,0.276,0.028,0.407,0.087
		c0.36,0.16,0.593,0.519,0.593,0.913v4.682c0,0.422-0.265,0.798-0.661,0.94c-0.693,0.25-1.425,0.419-2.175,0.503
		C192.926,53.454,192.221,53.494,191.534,53.494z M151.954,53.494c-0.944,0-1.867-0.134-2.742-0.398
		c-0.905-0.272-1.716-0.69-2.411-1.24c-0.712-0.564-1.283-1.271-1.697-2.098c-0.418-0.835-0.63-1.805-0.63-2.882
		c0-1.21,0.235-2.263,0.699-3.131c0.458-0.856,1.088-1.576,1.873-2.138c0.725-0.521,1.561-0.934,2.484-1.227
		c-0.231-0.023-0.449-0.128-0.614-0.297l-2.996-3.071c-0.188-0.193-0.291-0.454-0.284-0.723c0.006-0.27,0.122-0.524,0.319-0.708
		c1.147-1.065,2.5-1.873,4.023-2.402c1.495-0.521,3.067-0.786,4.672-0.786c1.765,0,3.254,0.231,4.427,0.686
		c1.224,0.476,2.222,1.19,2.967,2.125c0.729,0.915,1.242,2.043,1.524,3.352c0.264,1.23,0.397,2.655,0.397,4.237v9.251
		c0,0.553-0.447,1-1,1h-5.169c-0.52,0-0.947-0.396-0.995-0.904c-0.369,0.254-0.767,0.469-1.191,0.643
		C154.459,53.255,153.229,53.494,151.954,53.494z M156.411,45.067c-0.409,0-0.919,0.019-1.532,0.055
		c-0.558,0.032-1.099,0.126-1.608,0.278c-0.451,0.135-0.834,0.333-1.138,0.591c-0.123,0.104-0.265,0.278-0.265,0.698
		c0,0.316,0.093,0.48,0.353,0.627c0.426,0.24,0.854,0.357,1.307,0.357c0.454,0,0.895-0.062,1.31-0.184
		c0.408-0.12,0.772-0.288,1.083-0.502c0.272-0.188,0.485-0.421,0.649-0.714c0.152-0.274,0.228-0.604,0.228-1.009v-0.198H156.411z
		 M154.201,38.214c-0.771,0-1.45,0.154-2.075,0.472c-0.646,0.328-1.233,0.788-1.747,1.365c-0.04,0.045-0.084,0.086-0.131,0.122
		c0.699-0.185,1.42-0.329,2.151-0.43c0.937-0.128,1.893-0.207,2.841-0.233c0.469-0.012,0.919-0.021,1.351-0.028
		c-0.115-0.233-0.28-0.437-0.497-0.616C155.561,38.427,154.941,38.214,154.201,38.214z M169.34,53.045c-0.553,0-1-0.447-1-1V39.337
		h-2.708c-0.553,0-1-0.448-1-1v-4.494c0-0.552,0.447-1,1-1h2.708v-2.221c0-1.061,0.095-2.077,0.28-3.021
		c0.203-1.029,0.604-1.952,1.189-2.743c0.605-0.818,1.472-1.464,2.574-1.92c1.069-0.442,2.401-0.656,4.072-0.656
		c0.598,0,1.195,0.027,1.775,0.079c0.597,0.054,1.187,0.15,1.752,0.285c0.471,0.112,0.794,0.545,0.767,1.028l-0.263,4.757
		c-0.018,0.319-0.187,0.611-0.455,0.785c-0.164,0.106-0.353,0.16-0.543,0.16c-0.121,0-0.243-0.022-0.359-0.067
		c-0.278-0.107-0.534-0.188-0.761-0.239c-0.203-0.045-0.445-0.069-0.715-0.069c-0.639,0-1.112,0.117-1.37,0.339
		c-0.033,0.029-0.326,0.318-0.326,1.62v1.884h3.157c0.553,0,1,0.448,1,1v4.494c0,0.552-0.447,1-1,1h-3.157v12.708
		c0,0.553-0.447,1-1,1H169.34z M130.539,53.045c-0.552,0-1-0.447-1-1V33.843c0-0.552,0.448-1,1-1h5.618c0.552,0,1,0.448,1,1v0.074
		c0.208-0.186,0.424-0.355,0.646-0.507c0.99-0.675,2.226-1.017,3.672-1.017c0.349,0,0.699,0.014,1.049,0.04
		c0.39,0.03,0.755,0.092,1.087,0.183c0.435,0.119,0.736,0.514,0.736,0.964v5.131c0,0.318-0.151,0.617-0.408,0.806
		c-0.174,0.128-0.382,0.194-0.592,0.194c-0.1,0-0.201-0.015-0.299-0.046c-0.352-0.109-0.702-0.193-1.041-0.248
		c-0.337-0.054-0.694-0.081-1.058-0.081c-0.917,0-1.628,0.118-2.114,0.352c-0.455,0.218-0.791,0.507-1.028,0.885
		c-0.259,0.414-0.431,0.929-0.511,1.527c-0.094,0.702-0.141,1.489-0.141,2.342v7.603c0,0.553-0.448,1-1,1H130.539z"/>
</g>
<g id="Text">
	<path style="fill:#E5422B;" d="M122.221,32.42c-0.575-0.699-1.28-1.236-2.116-1.61c-0.837-0.375-1.804-0.562-2.903-0.562
		s-2.116,0.212-3.052,0.637c-0.937,0.425-1.748,1.018-2.435,1.779c-0.687,0.762-1.224,1.667-1.61,2.715
		c-0.388,1.048-0.581,2.185-0.581,3.408c0,1.249,0.193,2.391,0.581,3.427c0.387,1.036,0.917,1.935,1.592,2.696
		c0.674,0.762,1.466,1.354,2.378,1.779c0.911,0.425,1.891,0.637,2.94,0.637c1.198,0,2.259-0.25,3.184-0.749
		c0.923-0.5,1.685-1.199,2.285-2.098l4.869,3.633c-1.124,1.573-2.547,2.734-4.27,3.483c-1.723,0.749-3.496,1.123-5.318,1.123
		c-2.073,0-3.983-0.324-5.73-0.974c-1.748-0.648-3.258-1.579-4.532-2.79s-2.266-2.678-2.978-4.4
		c-0.711-1.724-1.067-3.646-1.067-5.768c0-2.122,0.356-4.045,1.067-5.768c0.711-1.723,1.704-3.189,2.978-4.4
		c1.273-1.211,2.784-2.141,4.532-2.791c1.748-0.649,3.658-0.974,5.73-0.974c0.749,0,1.529,0.069,2.341,0.206
		c0.811,0.137,1.61,0.355,2.397,0.655s1.542,0.699,2.266,1.199c0.724,0.5,1.373,1.111,1.947,1.835L122.221,32.42z M130.539,33.843
		h5.618v2.921h0.075c0.6-1.124,1.311-1.966,2.135-2.528c0.824-0.562,1.86-0.843,3.109-0.843c0.324,0,0.649,0.013,0.974,0.038
		c0.324,0.025,0.624,0.075,0.899,0.15v5.131c-0.399-0.125-0.793-0.218-1.18-0.281c-0.387-0.062-0.793-0.094-1.217-0.094
		c-1.074,0-1.923,0.15-2.547,0.45c-0.625,0.299-1.105,0.718-1.442,1.254c-0.337,0.538-0.556,1.18-0.655,1.929
		c-0.1,0.749-0.15,1.573-0.15,2.473v7.603h-5.618V33.843z M157.797,49.761h-0.075c-0.624,0.974-1.454,1.673-2.49,2.097
		c-1.036,0.425-2.129,0.637-3.277,0.637c-0.849,0-1.667-0.118-2.453-0.355s-1.479-0.593-2.079-1.067s-1.074-1.062-1.423-1.761
		c-0.35-0.698-0.524-1.51-0.524-2.435c0-1.048,0.193-1.935,0.581-2.659c0.387-0.724,0.911-1.322,1.573-1.797
		c0.661-0.475,1.417-0.843,2.266-1.105c0.849-0.262,1.729-0.455,2.641-0.581c0.911-0.125,1.822-0.199,2.733-0.225
		c0.911-0.024,1.754-0.038,2.528-0.038c0-0.998-0.355-1.791-1.067-2.378c-0.712-0.586-1.555-0.88-2.528-0.88
		c-0.924,0-1.767,0.194-2.528,0.581c-0.762,0.388-1.441,0.917-2.041,1.592l-2.996-3.071c1.049-0.974,2.271-1.704,3.671-2.191
		c1.397-0.487,2.846-0.73,4.344-0.73c1.648,0,3.003,0.206,4.064,0.618c1.061,0.412,1.91,1.018,2.547,1.816
		c0.637,0.799,1.079,1.779,1.329,2.94c0.249,1.161,0.375,2.504,0.375,4.026v9.251h-5.169V49.761z M156.411,44.068
		c-0.425,0-0.955,0.019-1.592,0.057c-0.637,0.037-1.249,0.144-1.835,0.318c-0.587,0.175-1.086,0.437-1.498,0.786
		s-0.618,0.837-0.618,1.461c0,0.674,0.287,1.174,0.861,1.498s1.173,0.486,1.798,0.486c0.549,0,1.08-0.074,1.592-0.225
		c0.512-0.149,0.967-0.361,1.367-0.637c0.398-0.274,0.717-0.624,0.955-1.049c0.236-0.424,0.355-0.923,0.355-1.498v-1.198H156.411z
		 M169.34,38.337h-3.708v-4.494h3.708v-3.221c0-0.998,0.087-1.941,0.262-2.828c0.175-0.886,0.512-1.667,1.012-2.341
		c0.499-0.674,1.217-1.204,2.153-1.592c0.937-0.387,2.166-0.581,3.689-0.581c0.574,0,1.136,0.025,1.686,0.075
		c0.549,0.05,1.086,0.137,1.61,0.262l-0.263,4.756c-0.324-0.125-0.624-0.218-0.898-0.281c-0.275-0.062-0.587-0.094-0.937-0.094
		c-0.898,0-1.573,0.194-2.022,0.581c-0.449,0.387-0.674,1.18-0.674,2.378v2.884h4.157v4.494h-4.157v13.708h-5.618V38.337z
		 M195.467,38.337h-4.943v6.067c0,0.5,0.024,0.955,0.074,1.367s0.162,0.768,0.338,1.067c0.174,0.3,0.442,0.531,0.805,0.693
		c0.361,0.162,0.843,0.243,1.442,0.243c0.3,0,0.692-0.031,1.18-0.094c0.486-0.062,0.854-0.206,1.104-0.431v4.682
		c-0.624,0.225-1.273,0.374-1.947,0.449s-1.336,0.112-1.985,0.112c-0.949,0-1.822-0.1-2.621-0.3c-0.8-0.199-1.499-0.518-2.098-0.955
		c-0.6-0.437-1.067-1.004-1.404-1.704c-0.338-0.698-0.506-1.548-0.506-2.547v-8.651h-3.596v-4.494h3.596v-5.394h5.618v5.394h4.943
		V38.337z"/>
	<path style="fill:#2E2E2E;" d="M215.31,25.529h3.708l9.662,22.247l9.663-22.247h3.521v26.517h-2.472V28.675h-0.075l-10.112,23.371
		h-1.086l-10.262-23.371h-0.075v23.371h-2.472V25.529z M248.462,27.888c0-0.474,0.162-0.874,0.487-1.199
		c0.324-0.324,0.724-0.487,1.198-0.487s0.874,0.163,1.199,0.487c0.323,0.325,0.486,0.725,0.486,1.199
		c0,0.475-0.163,0.874-0.486,1.198c-0.325,0.325-0.725,0.487-1.199,0.487s-0.874-0.162-1.198-0.487
		C248.624,28.762,248.462,28.363,248.462,27.888z M249.024,34.742h2.247v17.303h-2.247V34.742z M262.89,42.682l-6.18-7.94h2.884
		l4.794,6.554l4.756-6.554h2.81l-6.104,7.94l7.415,9.363h-2.921l-6.03-7.828l-5.918,7.828h-2.696L262.89,42.682z"/>
</g>
</svg>
