<?xml version="1.0" encoding="iso-8859-1"?>
<!-- Generator: Adobe Illustrator 26.0.2, SVG Export Plug-In . SVG Version: 6.00 Build 0)  -->
<svg version="1.1" id="Icon" xmlns="http://www.w3.org/2000/svg" xmlns:xlink="http://www.w3.org/1999/xlink" x="0px" y="0px"
	 viewBox="0 0 99.012 99.012" style="enable-background:new 0 0 99.012 99.012;" xml:space="preserve">
<g>
	<path id="Background" style="fill:#FFFFFF;" d="M85.032,97.506H13.979c-6.878,0-12.474-5.596-12.474-12.474V13.979
		c0-6.878,5.596-12.474,12.474-12.474h71.053c6.878,0,12.474,5.596,12.474,12.474v71.053C97.506,91.91,91.91,97.506,85.032,97.506z"
		/>
	<path id="Border" style="fill:#E5422B;" d="M85.032,96.506H13.979c-6.327,0-11.474-5.147-11.474-11.474V13.979
		c0-6.327,5.147-11.474,11.474-11.474h71.053c6.326,0,11.474,5.147,11.474,11.474v71.053C96.506,91.358,91.358,96.506,85.032,96.506
		z M85.032,4.506H13.98c-5.263,0-9.474,4.211-9.474,9.474v71.053c0,5.263,4.211,9.474,9.474,9.474h71.053
		c5.158,0,9.474-4.211,9.474-9.474V13.98C94.506,8.717,90.295,4.506,85.032,4.506"/>
	<g id="Laravel_Mix" style="opacity:0.75;">
		<path style="fill:#6DA5E5;" d="M74.29,38.662c0.015-0.354,0.023-0.712,0.023-1.069c0-13.702-11.108-24.811-24.811-24.811
			S24.691,23.89,24.691,37.593c0,0.359,0.008,0.717,0.023,1.072c8.322-3.635,17.794-2.346,24.791,2.894
			C56.502,36.32,65.969,35.03,74.29,38.662L74.29,38.662z"/>
		<path style="fill:#294BA5;" d="M39.6,60.349c3.124,1.359,6.495,2.058,9.902,2.054c3.523,0,6.875-0.734,9.91-2.058
			c-0.17-3.99-1.304-7.879-3.305-11.336c-1.674-2.905-3.92-5.439-6.602-7.451c-2.682,2.011-4.927,4.546-6.6,7.451
			C40.904,52.466,39.769,56.357,39.6,60.349L39.6,60.349z"/>
		<path style="fill:#2B9BDA;" d="M59.412,60.345c8.461-3.692,14.466-11.964,14.877-21.685c-8.319-3.63-17.788-2.34-24.783,2.898
			c2.682,2.011,4.927,4.546,6.6,7.451C58.109,52.465,59.243,56.355,59.412,60.345z"/>
		<path style="fill:#6750AE;" d="M39.6,60.349c-8.465-3.689-14.472-11.963-14.886-21.685c8.323-3.635,17.796-2.346,24.793,2.894
			c-2.682,2.011-4.927,4.546-6.6,7.451C40.904,52.466,39.769,56.357,39.6,60.349L39.6,60.349z"/>
		<path style="fill:#6074B8;" d="M59.412,60.345c0.337,7.999-3.215,15.919-9.906,20.92c-6.689-5.002-10.244-12.918-9.906-20.917
			c3.124,1.36,6.495,2.059,9.902,2.055C53.025,62.404,56.377,61.669,59.412,60.345z"/>
		<path style="fill:#66F1F3;" d="M49.506,81.267c0.784,0.586,1.612,1.133,2.481,1.636c11.866,6.851,27.041,2.785,33.891-9.081
			c6.852-11.867,2.786-27.042-9.081-33.891c-0.811-0.47-1.648-0.894-2.508-1.268c-0.412,9.72-6.416,17.993-14.877,21.685
			C59.751,68.345,56.196,76.265,49.506,81.267z"/>
		<path style="fill:#F27CC2;" d="M49.506,81.267c-0.784,0.586-1.612,1.133-2.481,1.636c-11.866,6.851-27.041,2.785-33.891-9.081
			C6.282,61.954,10.348,46.78,22.214,39.93c0.809-0.469,1.644-0.891,2.501-1.264c0.413,9.722,6.421,17.996,14.884,21.685
			C39.262,68.349,42.818,76.266,49.506,81.267L49.506,81.267z"/>
	</g>
	<path id="C_Outline" style="fill:#FFFFFF;" d="M48.19,66.874c-5.394,0-9.955-1.86-12.843-5.238
		c-2.648-3.097-3.709-7.329-2.987-11.917c1.535-9.761,10.362-16.845,20.987-16.845c5.141,0,9.977,2.076,13.267,5.696l0.707,0.778
		l-7.509,6.168l-0.629-0.825c-1.568-2.06-4.144-3.29-6.888-3.29c-5.458,0-9.716,3.473-10.594,8.641
		c-0.359,2.38,0.12,4.428,1.389,5.901c1.353,1.573,3.517,2.404,6.257,2.404c2.941,0,5.797-1.225,8.49-3.639l0.756-0.679l5.558,6.392
		l-0.806,0.651C58.657,64.868,53.416,66.874,48.19,66.874z"/>
	<path id="C" style="fill:#E5422B;" d="M49.348,59.348c2.947,0,6.105-1.158,9.158-3.895l4.211,4.842
		c-4.421,3.579-9.474,5.579-14.526,5.579c-10,0-16.316-6.632-14.842-16c1.474-9.368,10-16,20-16c4.842,0,9.368,1.895,12.526,5.368
		l-5.895,4.842c-1.684-2.211-4.526-3.684-7.684-3.684c-6,0-10.632,3.895-11.579,9.474C39.874,55.453,43.243,59.348,49.348,59.348"/>
</g>
</svg>
