<?xml version="1.0" encoding="iso-8859-1"?>
<!-- Generator: Adobe Illustrator 26.0.2, SVG Export Plug-In . SVG Version: 6.00 Build 0)  -->
<svg version="1.1" id="Icon" xmlns="http://www.w3.org/2000/svg" xmlns:xlink="http://www.w3.org/1999/xlink" x="0px" y="0px"
	 viewBox="0 0 99.012 99.012" style="enable-background:new 0 0 99.012 99.012;" xml:space="preserve">
<g>
	<path id="Background" style="fill:#FFFFFF;" d="M85.526,98H14.474C7.596,98,2,92.404,2,85.526V14.474C2,7.596,7.596,2,14.474,2
		h71.053C92.404,2,98,7.596,98,14.474v71.053C98,92.404,92.404,98,85.526,98z"/>
	<path id="Border" style="fill:#E5422B;" d="M85.526,97H14.474C8.147,97,3,91.853,3,85.526V14.474C3,8.147,8.147,3,14.474,3h71.053
		C91.853,3,97,8.147,97,14.474v71.053C97,91.853,91.853,97,85.526,97z M85.526,5H14.474C9.211,5,5,9.211,5,14.474v71.053
		C5,90.79,9.211,95,14.474,95h71.053C90.684,95,95,90.79,95,85.526V14.474C95,9.211,90.79,5,85.526,5"/>
	<g id="Laravel_Mix" style="opacity:0.75;">
		<path style="fill:#6DA5E5;" d="M74.784,39.156c0.015-0.354,0.023-0.712,0.023-1.069c0-13.702-11.108-24.811-24.811-24.811
			S25.185,24.384,25.185,38.087c0,0.359,0.008,0.717,0.023,1.072c8.322-3.635,17.794-2.346,24.791,2.894
			C56.996,36.815,66.464,35.524,74.784,39.156L74.784,39.156z"/>
		<path style="fill:#294BA5;" d="M40.094,60.843c3.124,1.359,6.495,2.058,9.902,2.054c3.523,0,6.875-0.734,9.91-2.058
			c-0.17-3.99-1.304-7.879-3.305-11.336c-1.674-2.905-3.92-5.439-6.602-7.451c-2.682,2.011-4.927,4.546-6.6,7.451
			C41.398,52.96,40.263,56.851,40.094,60.843L40.094,60.843z"/>
		<path style="fill:#2B9BDA;" d="M59.907,60.839c8.461-3.692,14.466-11.964,14.877-21.685c-8.319-3.63-17.788-2.34-24.783,2.898
			c2.682,2.011,4.927,4.546,6.6,7.451C58.603,52.959,59.737,56.849,59.907,60.839z"/>
		<path style="fill:#6750AE;" d="M40.094,60.843c-8.465-3.689-14.472-11.963-14.886-21.685C33.53,35.523,43.004,36.813,50,42.053
			c-2.682,2.011-4.927,4.546-6.6,7.451C41.398,52.96,40.263,56.851,40.094,60.843L40.094,60.843z"/>
		<path style="fill:#6074B8;" d="M59.907,60.839c0.337,7.999-3.215,15.919-9.906,20.92c-6.689-5.002-10.244-12.918-9.906-20.917
			c3.124,1.36,6.495,2.059,9.902,2.055C53.519,62.898,56.871,62.163,59.907,60.839z"/>
		<path style="fill:#66F1F3;" d="M50,81.761c0.784,0.586,1.612,1.133,2.481,1.636c11.866,6.851,27.041,2.785,33.891-9.081
			c6.852-11.867,2.786-27.042-9.081-33.891c-0.811-0.47-1.648-0.894-2.508-1.268c-0.412,9.72-6.416,17.993-14.877,21.685
			C60.245,68.839,56.69,76.759,50,81.761z"/>
		<path style="fill:#F27CC2;" d="M50,81.761c-0.784,0.586-1.612,1.133-2.481,1.636c-11.866,6.851-27.041,2.785-33.891-9.081
			c-6.852-11.867-2.786-27.042,9.081-33.891c0.809-0.469,1.644-0.891,2.501-1.264c0.413,9.722,6.421,17.996,14.884,21.685
			C39.756,68.843,43.312,76.76,50,81.761L50,81.761z"/>
	</g>
	<path id="C_Outline" style="fill:#FFFFFF;" d="M48.685,67.368c-5.394,0-9.955-1.86-12.843-5.238
		c-2.648-3.097-3.709-7.329-2.987-11.917c1.535-9.761,10.362-16.845,20.987-16.845c5.141,0,9.977,2.076,13.267,5.696l0.707,0.778
		l-7.509,6.168l-0.629-0.825c-1.568-2.06-4.144-3.29-6.888-3.29c-5.458,0-9.716,3.473-10.594,8.641
		c-0.359,2.38,0.12,4.428,1.389,5.901c1.353,1.573,3.517,2.404,6.257,2.404c2.941,0,5.797-1.225,8.49-3.639l0.756-0.679l5.558,6.392
		l-0.806,0.651C59.151,65.362,53.91,67.368,48.685,67.368z"/>
	<path id="C" style="fill:#E5422B;" d="M49.842,59.842c2.947,0,6.105-1.158,9.158-3.895l4.211,4.842
		c-4.421,3.579-9.474,5.579-14.526,5.579c-10,0-16.316-6.632-14.842-16c1.474-9.368,10-16,20-16c4.842,0,9.368,1.895,12.526,5.368
		l-5.895,4.842c-1.684-2.211-4.526-3.684-7.684-3.684c-6,0-10.632,3.895-11.579,9.474C40.369,55.948,43.737,59.842,49.842,59.842"/>
</g>
</svg>
