<?xml version="1.0" encoding="iso-8859-1"?>
<!-- Generator: Adobe Illustrator 26.0.2, SVG Export Plug-In . SVG Version: 6.00 Build 0)  -->
<svg version="1.1" id="Layer_1" xmlns="http://www.w3.org/2000/svg" xmlns:xlink="http://www.w3.org/1999/xlink" x="0px" y="0px"
	 viewBox="0 0 140 35" style="enable-background:new 0 0 140 35;" xml:space="preserve">
<path style="fill:#E5422B;" d="M48.483,20.722c-2.307,0-3.58-1.472-3.261-3.58c0.358-2.148,2.108-3.58,4.375-3.58
	c1.193,0,2.267,0.557,2.903,1.392l2.227-1.83c-1.193-1.352-2.903-2.028-4.733-2.028c-3.739,0-7,2.506-7.557,6.045
	c-0.557,3.58,1.83,6.045,5.608,6.045c1.909,0,3.818-0.795,5.489-2.108l-1.591-1.83C50.79,20.284,49.597,20.722,48.483,20.722"/>
<path style="fill:#E5422B;" d="M63.438,11.216c0,0-0.477-0.08-0.517-0.08c-0.517-0.08-1.074-0.04-1.591,0
	c-0.477,0.04-0.955,0.119-1.432,0.278c-0.398,0.119-0.835,0.278-1.193,0.517l0.08-0.557H56.08l-1.83,11.534h2.705l1.074-6.722
	c0.04-0.398,0.199-0.756,0.398-1.074s0.477-0.597,0.795-0.795c0.318-0.239,0.636-0.398,0.994-0.517
	c0.358-0.119,0.716-0.199,1.114-0.239c0.517-0.04,1.074,0,1.591,0.119h0.04C63.04,13.682,63.438,11.216,63.438,11.216"/>
<path style="fill:#E5422B;" d="M72.903,12.091c-0.756-0.636-1.909-0.994-3.261-0.994c-3.381,0-6.443,2.426-7.04,6.006
	c-0.557,3.58,1.79,6.006,5.051,6.006c1.472,0,2.705-0.199,3.739-0.915l-0.08,0.636h2.466l1.79-11.455h-2.545L72.903,12.091z"/>
<path style="fill:#E5422B;" d="M72.347,17.102L72.347,17.102c-0.358,2.188-1.989,3.699-4.097,3.699
	c-2.148,0-3.381-1.591-3.023-3.739s2.068-3.659,4.176-3.659C71.511,13.443,72.665,14.915,72.347,17.102L72.347,17.102z"/>
<path style="fill:#E5422B;" d="M88.057,11.375l0.517-3.261l-3.102,2.227l-0.159,1.074h-3.5l0.358-2.188
	c0.199-1.034,1.312-0.994,1.312-0.994h1.312l0.398-2.386h-1.511h-0.358c-3.699,0-3.818,2.864-3.818,2.864l-0.239,1.352l-0.199,1.352
	H78.83l-3.023,2.386h2.864l-1.83,11.653h2.784l1.83-11.693h3.5l-1.432,9.148h2.744l1.432-9.148h3.42l0.398-2.386H88.057z"/>
<path style="fill:#E5422B;" d="M95.415,17.142c0.557-3.54,3.778-6.045,7.557-6.045c1.83,0,3.54,0.716,4.733,2.028l-2.227,1.83
	c-0.636-0.835-1.71-1.392-2.903-1.392c-2.267,0-4.017,1.472-4.375,3.58c-0.318,2.108,0.955,3.58,3.261,3.58
	c1.114,0,2.307-0.438,3.46-1.472l1.591,1.83c-1.67,1.352-3.58,2.108-5.489,2.108C97.244,23.188,94.858,20.722,95.415,17.142"/>
<path style="fill:#E5422B;" d="M127.631,15.909l-1.074,7h-2.705l1.074-6.801c0.278-1.591-0.597-2.545-2.148-2.545
	c-1.631,0-3.261,0.994-3.5,2.625l-1.074,6.722H115.5l1.074-6.801c0.239-1.551-0.676-2.506-2.148-2.545
	c-1.511,0.08-3.261,1.034-3.5,2.625l-1.074,6.722h-2.705l1.83-11.534h2.705l-0.08,0.557c0.915-0.557,1.949-0.795,3.261-0.835h0.239
	c1.67,0,3.023,0.676,3.739,1.83c1.114-1.153,2.824-1.83,4.534-1.83C126.318,11.097,128.108,13.045,127.631,15.909"/>
<path style="fill:#E5422B;" d="M127.511,21.517l1.67-2.068c0.915,0.716,2.665,1.273,4.136,1.273c1.352,0,2.705-0.278,2.864-1.193
	c0.119-0.716-1.193-0.955-2.665-1.193c-3.062-0.517-4.614-1.153-4.295-3.46c0.477-2.903,3.46-3.739,5.926-3.739
	c1.75,0,3.58,0.597,4.812,1.432l-1.67,2.068c-0.955-0.597-2.188-1.034-3.58-1.034c-1.631,0-2.585,0.477-2.705,1.233
	c-0.08,0.517,0.358,0.716,2.267,1.034c2.784,0.477,5.091,0.915,4.653,3.58c-0.358,2.426-2.824,3.778-6.045,3.778
	C131.091,23.188,128.784,22.551,127.511,21.517"/>
<path style="fill:#E5422B;" d="M30.426,0H3.58C1.591,0,0,1.591,0,3.58v26.847c0,1.989,1.591,3.58,3.58,3.58h26.847
	c1.949,0,3.58-1.591,3.58-3.58V3.58C34.006,1.591,32.415,0,30.426,0"/>
<path style="fill:#E5422B;" d="M16.943,20.722c1.114,0,2.307-0.438,3.46-1.472l1.591,1.83c-1.67,1.352-3.58,2.108-5.489,2.108
	c-3.778,0-6.165-2.506-5.608-6.045c0.557-3.54,3.778-6.045,7.557-6.045c1.83,0,3.54,0.716,4.733,2.028l-2.227,1.83
	c-0.636-0.835-1.71-1.392-2.903-1.392c-2.267,0-4.017,1.472-4.375,3.58C13.364,19.25,14.636,20.722,16.943,20.722"/>
</svg>
